<mxfile host="app.diagrams.net" modified="2023-08-03T10:07:34.279Z" agent="Mozilla/5.0 (Windows NT 10.0; Win64; x64) AppleWebKit/537.36 (KHTML, like Gecko) Chrome/115.0.0.0 Safari/537.36" etag="73oKTUiU9ioD3Jn68X-M" version="21.6.5" type="device">
  <diagram name="Page-1" id="OFuppuXCd1MafI2_f2YT">
    <mxGraphModel dx="2284" dy="1882" grid="1" gridSize="10" guides="1" tooltips="1" connect="1" arrows="1" fold="1" page="1" pageScale="1" pageWidth="850" pageHeight="1100" math="0" shadow="0">
      <root>
        <mxCell id="0" />
        <mxCell id="1" parent="0" />
        <mxCell id="IbpUD1-fr4Ob6n8j15tP-2" value="" style="rounded=0;whiteSpace=wrap;html=1;strokeColor=default;fillColor=none;" parent="1" vertex="1">
          <mxGeometry x="-40" y="-70" width="1630" height="880" as="geometry" />
        </mxCell>
        <mxCell id="IbpUD1-fr4Ob6n8j15tP-9" style="edgeStyle=orthogonalEdgeStyle;rounded=0;orthogonalLoop=1;jettySize=auto;html=1;entryX=0;entryY=0.5;entryDx=0;entryDy=0;" parent="1" source="IbpUD1-fr4Ob6n8j15tP-1" target="IbpUD1-fr4Ob6n8j15tP-8" edge="1">
          <mxGeometry relative="1" as="geometry" />
        </mxCell>
        <mxCell id="IbpUD1-fr4Ob6n8j15tP-1" value="constructor(defaultSerivices)&lt;br&gt;&lt;div style=&quot;color: rgb(204, 204, 204); background-color: rgb(31, 31, 31); font-family: Consolas, &amp;quot;Courier New&amp;quot;, monospace; font-size: 14px; line-height: 19px;&quot;&gt;Record&amp;lt;&lt;span style=&quot;color: #4ec9b0;&quot;&gt;string&lt;/span&gt;,&lt;span style=&quot;color: #4ec9b0;&quot;&gt;unknown&lt;/span&gt;&amp;gt;&lt;/div&gt;" style="rounded=1;whiteSpace=wrap;html=1;" parent="1" vertex="1">
          <mxGeometry x="10" y="200" width="210" height="60" as="geometry" />
        </mxCell>
        <mxCell id="IbpUD1-fr4Ob6n8j15tP-3" value="&lt;div style=&quot;color: rgb(204, 204, 204); background-color: rgb(31, 31, 31); font-family: Consolas, &amp;quot;Courier New&amp;quot;, monospace; font-size: 14px; line-height: 19px;&quot;&gt;serviceCollection&lt;/div&gt;" style="text;html=1;strokeColor=none;fillColor=none;align=center;verticalAlign=middle;whiteSpace=wrap;rounded=0;" parent="1" vertex="1">
          <mxGeometry x="10" y="-60" width="60" height="30" as="geometry" />
        </mxCell>
        <mxCell id="IbpUD1-fr4Ob6n8j15tP-4" value="properties" style="swimlane;fontStyle=0;childLayout=stackLayout;horizontal=1;startSize=30;horizontalStack=0;resizeParent=1;resizeParentMax=0;resizeLast=0;collapsible=1;marginBottom=0;whiteSpace=wrap;html=1;" parent="1" vertex="1">
          <mxGeometry x="-30" width="390" height="140" as="geometry" />
        </mxCell>
        <mxCell id="IbpUD1-fr4Ob6n8j15tP-5" value="dependencies&amp;nbsp;&lt;span style=&quot;background-color: rgb(153, 255, 153);&quot;&gt;Map&lt;span style=&quot;color: rgb(204, 204, 204); font-family: Consolas, &amp;quot;Courier New&amp;quot;, monospace; font-size: 14px;&quot;&gt;&amp;lt;&lt;/span&gt;&lt;span style=&quot;font-family: Consolas, &amp;quot;Courier New&amp;quot;, monospace; font-size: 14px; color: rgb(78, 201, 176);&quot;&gt;string&lt;/span&gt;&lt;span style=&quot;color: rgb(204, 204, 204); font-family: Consolas, &amp;quot;Courier New&amp;quot;, monospace; font-size: 14px;&quot;&gt;, &lt;/span&gt;&lt;span style=&quot;font-family: Consolas, &amp;quot;Courier New&amp;quot;, monospace; font-size: 14px; color: rgb(78, 201, 176);&quot;&gt;string&lt;/span&gt;&lt;span style=&quot;color: rgb(204, 204, 204); font-family: Consolas, &amp;quot;Courier New&amp;quot;, monospace; font-size: 14px;&quot;&gt;[]&amp;gt;&lt;/span&gt;&lt;/span&gt;" style="text;strokeColor=none;fillColor=none;align=left;verticalAlign=middle;spacingLeft=4;spacingRight=4;overflow=hidden;points=[[0,0.5],[1,0.5]];portConstraint=eastwest;rotatable=0;whiteSpace=wrap;html=1;" parent="IbpUD1-fr4Ob6n8j15tP-4" vertex="1">
          <mxGeometry y="30" width="390" height="30" as="geometry" />
        </mxCell>
        <mxCell id="IbpUD1-fr4Ob6n8j15tP-6" value="graph&amp;nbsp;&amp;nbsp;&lt;span style=&quot;background-color: rgb(153, 255, 153);&quot;&gt;DepGraph&lt;span style=&quot;font-family: Consolas, &amp;quot;Courier New&amp;quot;, monospace; font-size: 14px; color: rgb(212, 212, 212);&quot;&gt;&amp;lt;&lt;/span&gt;&lt;span style=&quot;font-family: Consolas, &amp;quot;Courier New&amp;quot;, monospace; font-size: 14px; color: rgb(78, 201, 176);&quot;&gt;Array&lt;/span&gt;&lt;span style=&quot;font-family: Consolas, &amp;quot;Courier New&amp;quot;, monospace; font-size: 14px; color: rgb(212, 212, 212);&quot;&gt;&amp;lt;&lt;/span&gt;&lt;span style=&quot;font-family: Consolas, &amp;quot;Courier New&amp;quot;, monospace; font-size: 14px; color: rgb(78, 201, 176);&quot;&gt;DependencyFactory&lt;/span&gt;&lt;span style=&quot;font-family: Consolas, &amp;quot;Courier New&amp;quot;, monospace; font-size: 14px; color: rgb(212, 212, 212);&quot;&gt;&amp;lt;&lt;/span&gt;&lt;span style=&quot;font-family: Consolas, &amp;quot;Courier New&amp;quot;, monospace; font-size: 14px; color: rgb(156, 220, 254);&quot;&gt;unknown&lt;/span&gt;&lt;span style=&quot;color: rgb(204, 204, 204); font-family: Consolas, &amp;quot;Courier New&amp;quot;, monospace; font-size: 14px;&quot;&gt;, &lt;/span&gt;&lt;span style=&quot;font-family: Consolas, &amp;quot;Courier New&amp;quot;, monospace; font-size: 14px; color: rgb(78, 201, 176);&quot;&gt;Record&lt;/span&gt;&lt;span style=&quot;font-family: Consolas, &amp;quot;Courier New&amp;quot;, monospace; font-size: 14px; color: rgb(212, 212, 212);&quot;&gt;&amp;lt;&lt;/span&gt;&lt;span style=&quot;font-family: Consolas, &amp;quot;Courier New&amp;quot;, monospace; font-size: 14px; color: rgb(156, 220, 254);&quot;&gt;string&lt;/span&gt;&lt;span style=&quot;color: rgb(204, 204, 204); font-family: Consolas, &amp;quot;Courier New&amp;quot;, monospace; font-size: 14px;&quot;&gt;,&lt;/span&gt;&lt;span style=&quot;font-family: Consolas, &amp;quot;Courier New&amp;quot;, monospace; font-size: 14px; color: rgb(156, 220, 254);&quot;&gt;unknown&lt;/span&gt;&lt;span style=&quot;font-family: Consolas, &amp;quot;Courier New&amp;quot;, monospace; font-size: 14px; color: rgb(212, 212, 212);&quot;&gt;&amp;gt;&lt;/span&gt;&lt;span style=&quot;color: rgb(204, 204, 204); font-family: Consolas, &amp;quot;Courier New&amp;quot;, monospace; font-size: 14px;&quot;&gt;, &lt;/span&gt;&lt;span style=&quot;font-family: Consolas, &amp;quot;Courier New&amp;quot;, monospace; font-size: 14px; color: rgb(86, 156, 214);&quot;&gt;true&lt;/span&gt;&lt;span style=&quot;font-family: Consolas, &amp;quot;Courier New&amp;quot;, monospace; font-size: 14px; color: rgb(212, 212, 212);&quot;&gt;&amp;gt;&amp;gt;&amp;gt;&lt;/span&gt;&lt;/span&gt;" style="text;strokeColor=none;fillColor=none;align=left;verticalAlign=middle;spacingLeft=4;spacingRight=4;overflow=hidden;points=[[0,0.5],[1,0.5]];portConstraint=eastwest;rotatable=0;whiteSpace=wrap;html=1;" parent="IbpUD1-fr4Ob6n8j15tP-4" vertex="1">
          <mxGeometry y="60" width="390" height="50" as="geometry" />
        </mxCell>
        <mxCell id="IbpUD1-fr4Ob6n8j15tP-7" value="cache&amp;nbsp;&lt;span style=&quot;background-color: rgb(153, 255, 153);&quot;&gt;Record&lt;span style=&quot;color: rgb(204, 204, 204); font-family: Consolas, &amp;quot;Courier New&amp;quot;, monospace; font-size: 14px;&quot;&gt;&amp;lt;&lt;/span&gt;&lt;span style=&quot;font-family: Consolas, &amp;quot;Courier New&amp;quot;, monospace; font-size: 14px; color: rgb(78, 201, 176);&quot;&gt;string&lt;/span&gt;&lt;span style=&quot;color: rgb(204, 204, 204); font-family: Consolas, &amp;quot;Courier New&amp;quot;, monospace; font-size: 14px;&quot;&gt;, &lt;/span&gt;&lt;span style=&quot;font-family: Consolas, &amp;quot;Courier New&amp;quot;, monospace; font-size: 14px; color: rgb(78, 201, 176);&quot;&gt;unknown&lt;/span&gt;&lt;span style=&quot;color: rgb(204, 204, 204); font-family: Consolas, &amp;quot;Courier New&amp;quot;, monospace; font-size: 14px;&quot;&gt;&amp;gt; &lt;/span&gt;&lt;span style=&quot;font-family: Consolas, &amp;quot;Courier New&amp;quot;, monospace; font-size: 14px; color: rgb(212, 212, 212);&quot;&gt;=&lt;/span&gt;&lt;span style=&quot;color: rgb(204, 204, 204); font-family: Consolas, &amp;quot;Courier New&amp;quot;, monospace; font-size: 14px;&quot;&gt; {}&lt;/span&gt;&lt;/span&gt;" style="text;strokeColor=none;fillColor=none;align=left;verticalAlign=middle;spacingLeft=4;spacingRight=4;overflow=hidden;points=[[0,0.5],[1,0.5]];portConstraint=eastwest;rotatable=0;whiteSpace=wrap;html=1;" parent="IbpUD1-fr4Ob6n8j15tP-4" vertex="1">
          <mxGeometry y="110" width="390" height="30" as="geometry" />
        </mxCell>
        <mxCell id="IbpUD1-fr4Ob6n8j15tP-8" value="addInstance(key:string, ubstabce: InstanceType)&lt;br&gt;Note: add graph node" style="rounded=1;whiteSpace=wrap;html=1;" parent="1" vertex="1">
          <mxGeometry x="340" y="200" width="300" height="60" as="geometry" />
        </mxCell>
        <mxCell id="IbpUD1-fr4Ob6n8j15tP-10" value="forEach in&lt;br&gt;defaultServices" style="text;html=1;strokeColor=none;fillColor=none;align=center;verticalAlign=middle;whiteSpace=wrap;rounded=0;" parent="1" vertex="1">
          <mxGeometry x="250" y="190" width="60" height="30" as="geometry" />
        </mxCell>
        <mxCell id="IbpUD1-fr4Ob6n8j15tP-13" value="" style="group" parent="1" vertex="1" connectable="0">
          <mxGeometry x="-425" y="160" width="230" height="340" as="geometry" />
        </mxCell>
        <mxCell id="IbpUD1-fr4Ob6n8j15tP-11" value="" style="rounded=0;whiteSpace=wrap;html=1;fillColor=none;" parent="IbpUD1-fr4Ob6n8j15tP-13" vertex="1">
          <mxGeometry width="230" height="340" as="geometry" />
        </mxCell>
        <mxCell id="IbpUD1-fr4Ob6n8j15tP-12" value="autmationbot-action-adaptive-runtime--express" style="text;html=1;strokeColor=none;fillColor=none;align=center;verticalAlign=middle;whiteSpace=wrap;rounded=0;" parent="IbpUD1-fr4Ob6n8j15tP-13" vertex="1">
          <mxGeometry x="15" y="10" width="200" height="30" as="geometry" />
        </mxCell>
        <mxCell id="IbpUD1-fr4Ob6n8j15tP-15" value="In makeApp(), mustMakeInstances()&lt;br&gt;and&lt;br&gt;&amp;nbsp;mustMakeInstance()&lt;br&gt;are called.&lt;br&gt;" style="rounded=1;whiteSpace=wrap;html=1;" parent="IbpUD1-fr4Ob6n8j15tP-13" vertex="1">
          <mxGeometry x="55" y="120" width="120" height="110" as="geometry" />
        </mxCell>
        <mxCell id="IbpUD1-fr4Ob6n8j15tP-16" value="index.ts" style="text;html=1;strokeColor=none;fillColor=none;align=center;verticalAlign=middle;whiteSpace=wrap;rounded=0;" parent="IbpUD1-fr4Ob6n8j15tP-13" vertex="1">
          <mxGeometry x="85" y="90" width="60" height="30" as="geometry" />
        </mxCell>
        <mxCell id="IbpUD1-fr4Ob6n8j15tP-17" value="&amp;nbsp;&lt;b&gt;Note:&lt;/b&gt; string are passed as parameters.&lt;br&gt;like &#39;adapter&#39;, &#39;bot&#39;, &#39;channelServiceRoutes&#39;, &#39;customAdapters&#39;&lt;br&gt;&lt;br&gt;InstanceTypes are all defined in the type&lt;br&gt;parameters" style="text;html=1;strokeColor=none;fillColor=none;align=center;verticalAlign=middle;whiteSpace=wrap;rounded=0;" parent="IbpUD1-fr4Ob6n8j15tP-13" vertex="1">
          <mxGeometry x="2.5" y="230" width="225" height="100" as="geometry" />
        </mxCell>
        <mxCell id="0CqnG37drOhF-TcHs-pF-4" style="edgeStyle=orthogonalEdgeStyle;rounded=0;orthogonalLoop=1;jettySize=auto;html=1;" parent="1" source="0CqnG37drOhF-TcHs-pF-1" target="0CqnG37drOhF-TcHs-pF-3" edge="1">
          <mxGeometry relative="1" as="geometry" />
        </mxCell>
        <mxCell id="0CqnG37drOhF-TcHs-pF-1" value="mustMakeInstances&lt;br&gt;type parameter: Record&amp;lt;string, unknown&amp;gt;&lt;br&gt;var parameter: string[]" style="rounded=1;whiteSpace=wrap;html=1;" parent="1" vertex="1">
          <mxGeometry x="10" y="305" width="340" height="60" as="geometry" />
        </mxCell>
        <mxCell id="0CqnG37drOhF-TcHs-pF-2" style="edgeStyle=orthogonalEdgeStyle;rounded=0;orthogonalLoop=1;jettySize=auto;html=1;" parent="1" source="IbpUD1-fr4Ob6n8j15tP-15" target="0CqnG37drOhF-TcHs-pF-1" edge="1">
          <mxGeometry relative="1" as="geometry" />
        </mxCell>
        <mxCell id="0CqnG37drOhF-TcHs-pF-6" style="edgeStyle=orthogonalEdgeStyle;rounded=0;orthogonalLoop=1;jettySize=auto;html=1;" parent="1" source="0CqnG37drOhF-TcHs-pF-3" target="0CqnG37drOhF-TcHs-pF-5" edge="1">
          <mxGeometry relative="1" as="geometry" />
        </mxCell>
        <mxCell id="0CqnG37drOhF-TcHs-pF-3" value="makeInstances&lt;br&gt;type parameter: InstancesType&lt;br&gt;var parameter: null" style="rounded=1;whiteSpace=wrap;html=1;" parent="1" vertex="1">
          <mxGeometry x="440" y="305" width="340" height="60" as="geometry" />
        </mxCell>
        <mxCell id="0CqnG37drOhF-TcHs-pF-12" style="edgeStyle=orthogonalEdgeStyle;rounded=0;orthogonalLoop=1;jettySize=auto;html=1;exitX=0.25;exitY=0;exitDx=0;exitDy=0;entryX=0.5;entryY=1;entryDx=0;entryDy=0;" parent="1" source="0CqnG37drOhF-TcHs-pF-5" target="0CqnG37drOhF-TcHs-pF-8" edge="1">
          <mxGeometry relative="1" as="geometry" />
        </mxCell>
        <mxCell id="0CqnG37drOhF-TcHs-pF-5" value="buildNodes&lt;br&gt;type parameter: ReturnType = Record&amp;lt;string, unknown&amp;gt;&lt;br&gt;var parameter: generateNodes:func(), reuseServices: Record&amp;lt;string, unknown&amp;gt;" style="rounded=1;whiteSpace=wrap;html=1;" parent="1" vertex="1">
          <mxGeometry x="890" y="305" width="460" height="60" as="geometry" />
        </mxCell>
        <mxCell id="0CqnG37drOhF-TcHs-pF-8" value="generateNodes()&lt;br&gt;generate nodes in array format" style="swimlane;fontStyle=0;childLayout=stackLayout;horizontal=1;startSize=30;horizontalStack=0;resizeParent=1;resizeParentMax=0;resizeLast=0;collapsible=1;marginBottom=0;whiteSpace=wrap;html=1;" parent="1" vertex="1">
          <mxGeometry x="770" y="165" width="470" height="90" as="geometry" />
        </mxCell>
        <mxCell id="0CqnG37drOhF-TcHs-pF-9" value="Type 1: graph.overallOrder()&amp;nbsp; when make multi instances" style="text;strokeColor=none;fillColor=none;align=left;verticalAlign=middle;spacingLeft=4;spacingRight=4;overflow=hidden;points=[[0,0.5],[1,0.5]];portConstraint=eastwest;rotatable=0;whiteSpace=wrap;html=1;" parent="0CqnG37drOhF-TcHs-pF-8" vertex="1">
          <mxGeometry y="30" width="470" height="30" as="geometry" />
        </mxCell>
        <mxCell id="0CqnG37drOhF-TcHs-pF-10" value="Type 2: graph.dependenciesOf(key).concat(key) when make one instance" style="text;strokeColor=none;fillColor=none;align=left;verticalAlign=middle;spacingLeft=4;spacingRight=4;overflow=hidden;points=[[0,0.5],[1,0.5]];portConstraint=eastwest;rotatable=0;whiteSpace=wrap;html=1;" parent="0CqnG37drOhF-TcHs-pF-8" vertex="1">
          <mxGeometry y="60" width="470" height="30" as="geometry" />
        </mxCell>
        <mxCell id="2n5oAT5wXTp_Y-B_4BRz-2" value="&lt;div&gt;ServiceCollection {&lt;/div&gt;&lt;div&gt;&amp;nbsp; dependencies: Map(0) {},&lt;/div&gt;&lt;div&gt;&amp;nbsp; graph: {&lt;/div&gt;&lt;div&gt;&amp;nbsp; &amp;nbsp; nodes: { test: [Array] },&lt;/div&gt;&lt;div&gt;&amp;nbsp; &amp;nbsp; outgoingEdges: { test: [] },&lt;/div&gt;&lt;div&gt;&amp;nbsp; &amp;nbsp; incomingEdges: { test: [] },&lt;/div&gt;&lt;div&gt;&amp;nbsp; &amp;nbsp; circular: undefined&lt;/div&gt;&lt;div&gt;&amp;nbsp; },&lt;/div&gt;&lt;div&gt;&amp;nbsp; cache: { test: &#39;test&#39; }&lt;/div&gt;&lt;div style=&quot;&quot;&gt;}&lt;/div&gt;" style="rounded=0;whiteSpace=wrap;html=1;align=left;" vertex="1" parent="1">
          <mxGeometry x="600" y="5" width="160" height="160" as="geometry" />
        </mxCell>
        <mxCell id="2n5oAT5wXTp_Y-B_4BRz-3" style="edgeStyle=orthogonalEdgeStyle;rounded=0;orthogonalLoop=1;jettySize=auto;html=1;" edge="1" parent="1" source="IbpUD1-fr4Ob6n8j15tP-6" target="2n5oAT5wXTp_Y-B_4BRz-2">
          <mxGeometry relative="1" as="geometry" />
        </mxCell>
        <mxCell id="2n5oAT5wXTp_Y-B_4BRz-4" value="&lt;div style=&quot;color: rgb(204, 204, 204); background-color: rgb(31, 31, 31); font-family: Consolas, &amp;quot;Courier New&amp;quot;, monospace; font-size: 14px; line-height: 19px;&quot;&gt;visualize&lt;/div&gt;" style="text;html=1;strokeColor=none;fillColor=none;align=center;verticalAlign=middle;whiteSpace=wrap;rounded=0;" vertex="1" parent="1">
          <mxGeometry x="620" y="-30" width="110" height="30" as="geometry" />
        </mxCell>
        <mxCell id="2n5oAT5wXTp_Y-B_4BRz-6" value="Key Note: node in &#39;graph&#39; can be created to an instance and saved in &#39;cache&#39;" style="text;html=1;strokeColor=none;fillColor=none;align=center;verticalAlign=middle;whiteSpace=wrap;rounded=0;" vertex="1" parent="1">
          <mxGeometry x="400" y="40" width="170" height="30" as="geometry" />
        </mxCell>
        <mxCell id="2n5oAT5wXTp_Y-B_4BRz-9" style="edgeStyle=orthogonalEdgeStyle;rounded=0;orthogonalLoop=1;jettySize=auto;html=1;" edge="1" parent="1" source="2n5oAT5wXTp_Y-B_4BRz-7" target="2n5oAT5wXTp_Y-B_4BRz-8">
          <mxGeometry relative="1" as="geometry" />
        </mxCell>
        <mxCell id="2n5oAT5wXTp_Y-B_4BRz-7" value="composeFactory()&lt;br&gt;@params: 1. key: string&lt;span style=&quot;background-color: initial;&quot;&gt;&amp;nbsp;2.depsOrFactory:string[] or Factory&lt;br&gt;NOTE: if depsOrFactory is a Facotry, its type will be checked. if type is &#39;function&quot;, calls addFacotry()&amp;nbsp;&lt;br&gt;&lt;/span&gt;" style="rounded=1;whiteSpace=wrap;html=1;align=center;" vertex="1" parent="1">
          <mxGeometry x="5" y="470" width="350" height="110" as="geometry" />
        </mxCell>
        <mxCell id="2n5oAT5wXTp_Y-B_4BRz-8" value="addFactory()&lt;br&gt;if graph exists, remove it first then add it. if graph doesn&#39;t exit, add node" style="rounded=1;whiteSpace=wrap;html=1;" vertex="1" parent="1">
          <mxGeometry x="435" y="470" width="350" height="110" as="geometry" />
        </mxCell>
      </root>
    </mxGraphModel>
  </diagram>
</mxfile>
